<svg width="286" height="167" viewBox="0 0 286 167" fill="none" xmlns="http://www.w3.org/2000/svg">
<path d="M48.7817 80.4708C48.9855 83.3438 49.1954 86.219 49.4324 89.0899C49.447 89.281 50.239 95.8838 50.476 97.7733C50.6361 99.0402 50.8357 100.301 51.0186 101.563C51.1038 102.336 51.1911 103.111 51.2785 103.884C51.4073 105.372 51.5383 106.858 51.6672 108.344C51.8127 110.023 52.2472 116.323 52.2347 116.579C52.1391 118.606 52.058 120.635 51.9728 122.664C51.8522 123.124 51.7815 123.605 51.6028 124.039C51.1745 125.08 50.291 125.297 49.42 124.584C48.2142 123.6 47.2372 122.396 46.6343 120.942C45.1271 117.298 43.5888 113.661 42.2417 109.953C40.6804 105.652 39.2814 101.286 37.8636 96.9316C36.9343 94.0779 36.0841 91.1963 35.2151 88.3211C33.658 83.1656 32.0802 78.0165 30.5792 72.8438C29.4816 69.0646 28.4089 65.2747 27.4859 61.4483C26.5733 57.6734 25.9205 53.8363 26.0078 49.9218C26.0328 48.7602 26.2531 47.5964 26.4569 46.4476C26.7437 44.8157 27.7645 43.7786 29.1822 43.1022C31.1717 42.1531 33.2693 41.6163 35.4459 41.4767C37.2732 41.3586 39.1109 41.2212 40.934 41.3135C43.5389 41.4488 46.1354 41.7859 48.7381 42.1724C45.6364 43.3169 42.6304 44.6654 39.3562 45.0755C39.35 45.1313 39.3437 45.185 39.3375 45.2408C39.8863 45.3031 40.4455 45.4706 40.9798 45.4105C42.6907 45.2215 44.4245 45.0862 46.0917 44.674C48.6404 44.0448 51.1246 43.1237 53.6712 42.4752C55.7667 41.9427 57.9017 41.5347 60.0409 41.2298C63.0885 40.796 66.1402 40.985 69.1296 41.7236C70.3624 42.0307 71.5598 42.5611 72.7136 43.1172C74.2332 43.8516 74.8049 45.3375 74.9026 46.9136C75.0274 48.8761 75.0544 50.8731 74.8507 52.8249C74.5887 55.3394 74.1127 57.8345 73.6179 60.3167C73.2395 62.2235 72.6845 64.0937 72.2126 65.9811C72.0588 66.5888 71.9049 67.1965 71.7698 67.8085C71.6596 68.3088 71.4684 68.618 70.9008 68.371C70.8198 68.3345 69.7325 68.1048 69.2959 68.0124C65.8658 67.2953 62.4128 66.84 58.9037 67.2394C55.0246 67.6796 51.9375 69.3652 50.1954 73.1615C49.5447 74.5766 48.7714 80.3183 48.7817 80.4708Z" fill="#00ADEF"/>
<path d="M50.4866 78.9913C50.3503 78.965 50.2118 78.9388 50 78.8972C50.2811 77.2859 50.5831 75.7074 51.2249 74.2339C52.9428 70.2832 55.9485 68.5516 59.7113 68.1297C63.1156 67.7471 66.4548 68.2587 69.773 69.0414C70.1946 69.1419 70.591 69.3693 71 69.5377C70.333 72.0169 69.666 74.494 68.9969 76.9733C68.6739 78.1605 67.9712 78.8491 66.8512 78.976C66.6897 78.965 66.5282 78.9475 66.3646 78.9475C61.9179 78.9453 57.4712 78.9453 53.0225 78.9497C52.4541 78.9497 51.8835 78.9825 51.3151 79C51.0383 78.9956 50.7635 78.9934 50.4866 78.9913Z" fill="#121213"/>
<path d="M50.983 90C50.8424 89.8297 50.5946 89.6673 50.5799 89.487C50.3658 86.8056 50.181 84.1202 50.0005 81.4369C49.9921 81.2946 50.0929 81.1463 50.1412 81C54.6024 81.004 59.0657 81.008 63.5269 81.014C65.5445 81.014 66.4241 82.1703 65.8048 84.004C65.2988 85.507 64.7992 87.01 64.2785 88.509C64.0056 89.2986 63.4618 89.8196 62.5696 89.9519L62.5549 89.9559C59.4121 89.9659 56.2672 89.9739 53.1223 89.984C53.0803 89.984 53.0341 89.984 52.99 89.986C52.862 89.988 52.7339 89.992 52.6058 89.996C52.5282 89.996 52.4484 89.996 52.3686 89.996C52.2343 89.994 52.0999 89.994 51.9655 89.992C51.7682 89.992 51.5708 89.992 51.3735 89.994L50.983 90Z" fill="#121213"/>
<path d="M52.1048 102C51.9383 100.689 51.7535 99.381 51.6093 98.0681C51.394 96.1055 51.2051 94.1406 51 92.1224C51.264 92.0801 51.5179 92.0401 51.7718 92C51.9017 92.0022 52.0338 92.0022 52.1658 92.0045C54.8649 92.0223 57.5641 92.0401 60.2653 92.0579C61.6463 92.3805 62.2901 93.551 61.8758 95.0196C61.3803 96.7797 60.8725 98.5332 60.3587 100.284C60.0114 101.47 59.3534 101.978 58.2038 101.982C56.1708 101.989 54.1378 101.993 52.1048 102Z" fill="#121213"/>
<path d="M54.9388 113H52.8467C52.6911 111.15 52.5425 109.399 52.3962 107.648C52.2642 106.098 52.1321 104.55 52 103C53.5236 103.002 55.0496 102.996 56.5733 103.007C58.3209 103.02 59.3799 104.355 58.8729 105.946C58.295 107.757 57.6606 109.553 57.0568 111.358C56.7266 112.349 56.0284 112.897 54.9388 113Z" fill="#121213"/>
<path d="M86 101L77.5632 71H75.4828L67 101H69.2981L71.6903 92.128H81.2469L83.7019 101H86ZM80.5478 89.598H72.3915L75.9956 76.2507C76.0668 75.9859 76.1421 75.6807 76.2195 75.3311C76.297 74.9836 76.3681 74.5853 76.4309 74.1382H76.4916C76.544 74.5853 76.6088 74.9836 76.6863 75.3311C76.7637 75.6807 76.8391 75.9859 76.9123 76.2507L80.5478 89.598Z" fill="#00ADEF" stroke="#00ADEF" stroke-miterlimit="10"/>
<path d="M100 101V98.4679H91.065V71H89V101H100Z" fill="#00ADEF" stroke="#00ADEF" stroke-miterlimit="10"/>
<path d="M126 101V71H123.659L115.943 93.5731C115.765 94.1028 115.615 94.5987 115.494 95.0585C115.376 95.5183 115.24 96.0268 115.094 96.5841H115.001C114.874 96.0268 114.736 95.5013 114.584 95.0055C114.432 94.5118 114.277 94.0266 114.12 93.5519L106.468 71H104V101H106.043V80.0585C106.043 79.0541 106.036 78.1408 106.019 77.3187C106.005 76.4965 105.975 75.7634 105.935 75.1213H105.996C106.237 76.3906 106.472 77.3738 106.703 78.0709L114.576 101H115.471L123.329 77.9247C123.432 77.6323 123.545 77.2551 123.665 76.7953C123.786 76.3355 123.919 75.7909 124.067 75.1637H124.129C124.004 77.52 123.94 79.23 123.94 80.2894V101H126Z" fill="#00ADEF" stroke="#00ADEF" stroke-miterlimit="10"/>
<path d="M148 101L140.009 71H138.036L130 101H132.177L134.445 92.128H143.497L145.823 101H148ZM142.835 89.598H135.108L138.522 76.2507C138.59 75.9859 138.661 75.6807 138.734 75.3311C138.81 74.9836 138.875 74.5853 138.935 74.1382H138.992C139.042 74.5853 139.103 74.9836 139.176 75.3311C139.25 75.6807 139.321 75.9859 139.391 76.2507L142.835 89.598Z" fill="#00ADEF" stroke="#00ADEF" stroke-miterlimit="10"/>
<path d="M157.443 101C159.232 101 160.84 100.633 162.266 99.9003C163.69 99.1692 164.906 98.131 165.905 96.7833C166.906 95.4378 167.672 93.8168 168.203 91.9203C168.734 90.0239 169 87.9176 169 85.6016C169 80.7916 168.048 77.1534 166.148 74.6933C164.248 72.2311 161.437 71 157.716 71H152V101H157.443ZM157.579 73.5533C163.776 73.5533 166.875 77.5984 166.875 85.6864C166.875 87.7502 166.661 89.5768 166.232 91.166C165.801 92.7573 165.178 94.0922 164.358 95.1729C163.539 96.2536 162.54 97.0736 161.363 97.6309C160.184 98.1882 158.848 98.4679 157.353 98.4679H154.016V73.5533H157.579Z" fill="#231F20" stroke="#231F20" stroke-miterlimit="10"/>
<path d="M185 101V98.4679H176.001V87.0658H183.887V84.557H176.001V73.5533H184.52V71H174V101H185Z" fill="#231F20" stroke="#231F20" stroke-miterlimit="10"/>
<path d="M207 101V71H204.965V93.2998C204.965 93.999 204.976 94.6326 204.996 95.2047C205.017 95.7768 205.047 96.2917 205.088 96.7515H205.01C204.89 96.4739 204.757 96.1709 204.61 95.8425C204.462 95.5141 204.299 95.1623 204.115 94.7851L192.231 71H190V101H192.02V77.7573C192.02 77.0877 192.012 76.5304 191.996 76.0833C191.981 75.6384 191.963 75.2887 191.943 75.0387H192.02C192.11 75.346 192.229 75.6596 192.376 75.9795C192.523 76.2995 192.672 76.6131 192.824 76.9203L204.904 101H207Z" fill="#231F20" stroke="#231F20" stroke-miterlimit="10"/>
<path d="M226 73.5533V71H211V73.5533H217.452V101H219.531V73.5533H226Z" fill="#231F20" stroke="#231F20" stroke-miterlimit="10"/>
<path d="M244 101L236.009 71H234.036L226 101H228.179L230.445 92.128H239.497L241.823 101H244ZM238.835 89.598H231.108L234.522 76.2507C234.592 75.9859 234.663 75.6807 234.736 75.3311C234.81 74.9836 234.875 74.5853 234.935 74.1382H234.994C235.042 74.5853 235.103 74.9836 235.176 75.3311C235.252 75.6807 235.321 75.9859 235.391 76.2507L238.835 89.598Z" fill="#231F20" stroke="#231F20" stroke-miterlimit="10"/>
<path d="M259 101V98.4679H250.063V71H248V101H259Z" fill="#231F20" stroke="#231F20" stroke-miterlimit="10"/>
</svg>
